<svg width="23" height="19" viewBox="0 0 23 19" fill="none" xmlns="http://www.w3.org/2000/svg">
<path fill-rule="evenodd" clip-rule="evenodd" d="M11.5 4C11.7761 4 12 4.22386 12 4.5L12 13.2929L15.1464 10.1464C15.3417 9.95118 15.6583 9.95118 15.8536 10.1464C16.0488 10.3417 16.0488 10.6583 15.8536 10.8536L11.8536 14.8536C11.7598 14.9473 11.6326 15 11.5 15C11.3674 15 11.2402 14.9473 11.1464 14.8536L7.14645 10.8536C6.95118 10.6583 6.95118 10.3417 7.14645 10.1464C7.34171 9.95118 7.65829 9.95118 7.85355 10.1464L11 13.2929L11 4.5C11 4.22386 11.2239 4 11.5 4Z" fill="black"/>
<rect x="0.5" y="0.5" width="22" height="18" rx="9" stroke="black"/>
</svg>
