<svg width="812" height="639" viewBox="0 0 812 639" fill="none" xmlns="http://www.w3.org/2000/svg">
<mask id="mask0_26_784" style="mask-type:alpha" maskUnits="userSpaceOnUse" x="0" y="0" width="812" height="639">
<rect width="812" height="639" fill="url(#paint0_radial_26_784)"/>
</mask>
<g mask="url(#mask0_26_784)">
<rect x="89.5" y="82.5" width="79" height="79" stroke="white"/>
<rect x="168.5" y="82.5" width="79" height="79" stroke="white"/>
<rect x="247.5" y="82.5" width="79" height="79" stroke="white"/>
<rect x="326.5" y="82.5" width="79" height="79" stroke="white"/>
<rect x="405.5" y="82.5" width="79" height="79" stroke="white"/>
<rect x="484.5" y="82.5" width="79" height="79" fill="white" fill-opacity="0.2" stroke="white"/>
<rect x="563.5" y="82.5" width="79" height="79" stroke="white"/>
<rect x="642.5" y="82.5" width="79" height="79" stroke="white"/>
<rect x="89.5" y="161.5" width="79" height="79" stroke="white"/>
<rect x="168.5" y="161.5" width="79" height="79" stroke="white"/>
<rect x="247.5" y="161.5" width="79" height="79" stroke="white"/>
<rect x="326.5" y="161.5" width="79" height="79" stroke="white"/>
<rect x="405.5" y="161.5" width="79" height="79" stroke="white"/>
<rect x="484.5" y="161.5" width="79" height="79" stroke="white"/>
<rect x="563.5" y="161.5" width="79" height="79" stroke="white"/>
<rect x="642.5" y="161.5" width="79" height="79" stroke="white"/>
<rect x="89.5" y="240.5" width="79" height="79" stroke="white"/>
<rect x="168.5" y="240.5" width="79" height="79" stroke="white"/>
<rect x="247.5" y="240.5" width="79" height="79" stroke="white"/>
<rect x="326.5" y="240.5" width="79" height="79" fill="white" fill-opacity="0.2" stroke="white"/>
<rect x="405.5" y="240.5" width="79" height="79" stroke="white"/>
<rect x="484.5" y="240.5" width="79" height="79" fill="white" fill-opacity="0.2" stroke="white"/>
<rect x="563.5" y="240.5" width="79" height="79" stroke="white"/>
<rect x="642.5" y="240.5" width="79" height="79" stroke="white"/>
<rect x="89.5" y="319.5" width="79" height="79" stroke="white"/>
<rect x="168.5" y="319.5" width="79" height="79" stroke="white"/>
<rect x="247.5" y="319.5" width="79" height="79" stroke="white"/>
<rect x="326.5" y="319.5" width="79" height="79" stroke="white"/>
<rect x="405.5" y="319.5" width="79" height="79" stroke="white"/>
<rect x="484.5" y="319.5" width="79" height="79" stroke="white"/>
<rect x="563.5" y="319.5" width="79" height="79" stroke="white"/>
<rect x="642.5" y="319.5" width="79" height="79" stroke="white"/>
<rect x="89.5" y="398.5" width="79" height="79" stroke="white"/>
<rect x="168.5" y="398.5" width="79" height="79" stroke="white"/>
<rect x="247.5" y="398.5" width="79" height="79" fill="white" fill-opacity="0.2" stroke="white"/>
<rect x="326.5" y="398.5" width="79" height="79" stroke="white"/>
<rect x="405.5" y="398.5" width="79" height="79" stroke="white"/>
<rect x="484.5" y="398.5" width="79" height="79" stroke="white"/>
<rect x="563.5" y="398.5" width="79" height="79" stroke="white"/>
<rect x="642.5" y="398.5" width="79" height="79" stroke="white"/>
<rect x="89.5" y="477.5" width="79" height="79" stroke="white"/>
<rect x="168.5" y="477.5" width="79" height="79" stroke="white"/>
<rect x="247.5" y="477.5" width="79" height="79" stroke="white"/>
<rect x="326.5" y="477.5" width="79" height="79" stroke="white"/>
<rect x="405.5" y="477.5" width="79" height="79" stroke="white"/>
<rect x="484.5" y="477.5" width="79" height="79" stroke="white"/>
<rect x="563.5" y="477.5" width="79" height="79" stroke="white"/>
<rect x="642.5" y="477.5" width="79" height="79" stroke="white"/>
</g>
<defs>
<radialGradient id="paint0_radial_26_784" cx="0" cy="0" r="1" gradientUnits="userSpaceOnUse" gradientTransform="translate(406 319.5) rotate(90) scale(319.5 406)">
<stop stop-color="#D9D9D9" stop-opacity="0.2"/>
<stop offset="0.743349" stop-color="#D9D9D9" stop-opacity="0"/>
</radialGradient>
</defs>
</svg>
