<svg width="139" height="34" viewBox="0 0 139 34" fill="none" xmlns="http://www.w3.org/2000/svg">
<g clip-path="url(#clip0_22_614)">
<path d="M30.3124 31.2975C24.1143 35.1422 16.4034 34.4496 11.0133 30.1359C15.2213 28.7725 20.248 26.4057 25.367 23.2318C30.4805 20.0579 34.8349 16.6004 37.9312 13.4319C39.3573 20.2105 36.5104 27.4528 30.3124 31.2975Z" fill="url(#paint0_linear_22_614)"/>
<path d="M11.0133 30.1359C5.61782 31.881 1.56171 31.9791 0.357888 30.0159C-0.845933 28.0581 1.06283 24.4534 5.03761 20.3851C5.42261 22.2502 6.12755 24.0716 7.17954 25.784C8.23153 27.4964 9.53295 28.9525 11.0133 30.1359Z" fill="url(#paint1_linear_22_614)"/>
<path d="M37.9312 13.4319C37.5462 11.5668 36.8412 9.74538 35.7892 8.03299C34.7372 6.3206 33.4358 4.86453 31.9554 3.68112C37.3509 1.93601 41.4071 1.83785 42.6109 3.8011C43.8147 5.7589 41.9059 9.36364 37.9312 13.4319Z" fill="url(#paint2_linear_22_614)"/>
<path d="M37.9312 13.4319C34.8349 16.6004 30.4805 20.0579 25.367 23.2318C20.248 26.4057 15.2213 28.7725 11.0133 30.1359C9.53295 28.9525 8.23152 27.4964 7.17954 25.784C6.12755 24.0716 5.42261 22.2502 5.0376 20.3851C3.61145 13.6064 6.45833 6.36423 12.6564 2.51953C18.8544 -1.32517 26.5654 -0.632576 31.9555 3.68112C33.4358 4.86452 34.7373 6.3206 35.7893 8.03299C36.8412 9.74538 37.5462 11.5668 37.9312 13.4319Z" fill="url(#paint3_linear_22_614)"/>
</g>
<path d="M58.9194 25.8912C57.55 25.8912 56.2736 25.6714 55.0902 25.2318C53.9237 24.7754 52.9094 24.133 52.0472 23.3046C51.185 22.4762 50.5088 21.5041 50.0185 20.3883C49.5452 19.2725 49.3085 18.0469 49.3085 16.7113C49.3085 15.3758 49.5452 14.1501 50.0185 13.0343C50.5088 11.9185 51.185 10.9465 52.0472 10.1181C52.9263 9.28969 53.9491 8.65573 55.1156 8.21618C56.2821 7.75972 57.5585 7.53149 58.9448 7.53149C60.4832 7.53149 61.8695 7.80199 63.1036 8.34297C64.3546 8.86705 65.4028 9.64471 66.248 10.676L63.6107 13.1104C63.0021 12.4173 62.3259 11.9016 61.5821 11.5635C60.8382 11.2085 60.0267 11.031 59.1476 11.031C58.3192 11.031 57.5585 11.1662 56.8653 11.4367C56.1722 11.7072 55.5721 12.096 55.0649 12.6032C54.5577 13.1104 54.1604 13.7105 53.873 14.4037C53.6025 15.0968 53.4673 15.866 53.4673 16.7113C53.4673 17.5566 53.6025 18.3258 53.873 19.019C54.1604 19.7121 54.5577 20.3122 55.0649 20.8194C55.5721 21.3266 56.1722 21.7154 56.8653 21.9859C57.5585 22.2564 58.3192 22.3917 59.1476 22.3917C60.0267 22.3917 60.8382 22.2226 61.5821 21.8845C62.3259 21.5295 63.0021 20.9969 63.6107 20.2869L66.248 22.7213C65.4028 23.7526 64.3546 24.5387 63.1036 25.0797C61.8695 25.6207 60.4747 25.8912 58.9194 25.8912Z" fill="url(#paint4_linear_22_614)"/>
<path d="M74.153 25.7897C73.0203 25.7897 72.006 25.5699 71.11 25.1304C70.2309 24.6908 69.5462 24.0231 69.0559 23.1271C68.5657 22.2141 68.3205 21.0561 68.3205 19.6529V11.9439H72.2765V19.0697C72.2765 20.2024 72.5131 21.0392 72.9865 21.5802C73.4768 22.1043 74.1615 22.3663 75.0406 22.3663C75.6492 22.3663 76.1901 22.2395 76.6635 21.9859C77.1369 21.7154 77.5088 21.3097 77.7793 20.7687C78.0498 20.2108 78.185 19.5177 78.185 18.6893V11.9439H82.141V25.5868H78.3879V21.8338L79.0726 22.9242C78.6161 23.8709 77.9399 24.5894 77.0439 25.0797C76.1648 25.553 75.2012 25.7897 74.153 25.7897Z" fill="url(#paint5_linear_22_614)"/>
<path d="M93.8699 25.7897C92.7204 25.7897 91.7145 25.5361 90.8523 25.029C89.9901 24.5218 89.3138 23.7526 88.8236 22.7213C88.3502 21.6732 88.1135 20.3545 88.1135 18.7654C88.1135 17.1593 88.3418 15.8407 88.7982 14.8094C89.2547 13.7782 89.914 13.009 90.7762 12.5018C91.6384 11.9946 92.6696 11.741 93.8699 11.741C95.1548 11.741 96.3044 12.0369 97.3187 12.6286C98.35 13.2034 99.1614 14.0149 99.7531 15.063C100.362 16.1112 100.666 17.3453 100.666 18.7654C100.666 20.2024 100.362 21.4449 99.7531 22.4931C99.1614 23.5412 98.35 24.3527 97.3187 24.9275C96.3044 25.5023 95.1548 25.7897 93.8699 25.7897ZM85.8059 30.5064V11.9439H89.5843V14.7333L89.5083 18.7907L89.7618 22.8228V30.5064H85.8059ZM93.1853 22.5438C93.8446 22.5438 94.4278 22.3917 94.935 22.0874C95.4591 21.783 95.8733 21.352 96.1776 20.7941C96.4988 20.2193 96.6594 19.543 96.6594 18.7654C96.6594 17.9708 96.4988 17.2946 96.1776 16.7367C95.8733 16.1788 95.4591 15.7477 94.935 15.4434C94.4278 15.1391 93.8446 14.9869 93.1853 14.9869C92.5259 14.9869 91.9342 15.1391 91.4102 15.4434C90.8861 15.7477 90.4719 16.1788 90.1676 16.7367C89.8633 17.2946 89.7111 17.9708 89.7111 18.7654C89.7111 19.543 89.8633 20.2193 90.1676 20.7941C90.4719 21.352 90.8861 21.783 91.4102 22.0874C91.9342 22.3917 92.5259 22.5438 93.1853 22.5438Z" fill="url(#paint6_linear_22_614)"/>
<path d="M108.893 25.7897C107.287 25.7897 106.036 25.384 105.14 24.5725C104.244 23.7441 103.796 22.5185 103.796 20.8955V8.92622H107.752V20.8448C107.752 21.4196 107.904 21.8676 108.208 22.1888C108.513 22.4931 108.927 22.6452 109.451 22.6452C110.077 22.6452 110.609 22.4762 111.049 22.1381L112.114 24.9275C111.708 25.2149 111.218 25.4347 110.643 25.5868C110.085 25.7221 109.502 25.7897 108.893 25.7897ZM101.691 15.2912V12.2482H111.15V15.2912H101.691Z" fill="url(#paint7_linear_22_614)"/>
<path d="M120.405 25.7897C118.951 25.7897 117.658 25.4854 116.525 24.8768C115.41 24.2682 114.522 23.4398 113.863 22.3917C113.22 21.3266 112.899 20.1178 112.899 18.7654C112.899 17.396 113.22 16.1872 113.863 15.1391C114.522 14.074 115.41 13.2456 116.525 12.6539C117.658 12.0453 118.951 11.741 120.405 11.741C121.842 11.741 123.127 12.0453 124.26 12.6539C125.392 13.2456 126.28 14.0656 126.922 15.1137C127.565 16.1619 127.886 17.3791 127.886 18.7654C127.886 20.1178 127.565 21.3266 126.922 22.3917C126.28 23.4398 125.392 24.2682 124.26 24.8768C123.127 25.4854 121.842 25.7897 120.405 25.7897ZM120.405 22.5438C121.065 22.5438 121.656 22.3917 122.18 22.0874C122.704 21.783 123.119 21.352 123.423 20.7941C123.727 20.2193 123.879 19.543 123.879 18.7654C123.879 17.9708 123.727 17.2946 123.423 16.7367C123.119 16.1788 122.704 15.7477 122.18 15.4434C121.656 15.1391 121.065 14.9869 120.405 14.9869C119.746 14.9869 119.154 15.1391 118.63 15.4434C118.106 15.7477 117.683 16.1788 117.362 16.7367C117.058 17.2946 116.906 17.9708 116.906 18.7654C116.906 19.543 117.058 20.2193 117.362 20.7941C117.683 21.352 118.106 21.783 118.63 22.0874C119.154 22.3917 119.746 22.5438 120.405 22.5438Z" fill="url(#paint8_linear_22_614)"/>
<path d="M130.53 25.5868V11.9439H134.309V15.7984L133.776 14.6826C134.182 13.719 134.833 12.9921 135.729 12.5018C136.625 11.9946 137.715 11.741 139 11.741V15.3927C138.831 15.3758 138.679 15.3673 138.544 15.3673C138.408 15.3504 138.265 15.342 138.112 15.342C137.03 15.342 136.151 15.6547 135.475 16.2802C134.816 16.8888 134.486 17.844 134.486 19.1458V25.5868H130.53Z" fill="url(#paint9_linear_22_614)"/>
<defs>
<linearGradient id="paint0_linear_22_614" x1="20.78" y1="15.497" x2="32.7549" y2="32.4027" gradientUnits="userSpaceOnUse">
<stop stop-color="#5BCEF2"/>
<stop offset="1" stop-color="#008FBC"/>
</linearGradient>
<linearGradient id="paint1_linear_22_614" x1="8.80504" y1="22.8932" x2="1.05657" y2="30.2895" gradientUnits="userSpaceOnUse">
<stop stop-color="#FFBF56"/>
<stop offset="1" stop-color="#F39200"/>
</linearGradient>
<linearGradient id="paint2_linear_22_614" x1="37.4617" y1="2.35046" x2="37.4617" y2="13.4319" gradientUnits="userSpaceOnUse">
<stop stop-color="#BC0071"/>
<stop offset="1" stop-color="#FF18C9"/>
</linearGradient>
<linearGradient id="paint3_linear_22_614" x1="7.39624" y1="0.704446" x2="29.2328" y2="28.1763" gradientUnits="userSpaceOnUse">
<stop stop-color="#787878"/>
<stop offset="1" stop-color="#131313"/>
</linearGradient>
<linearGradient id="paint4_linear_22_614" x1="94.1542" y1="7.53149" x2="94.1542" y2="30.5064" gradientUnits="userSpaceOnUse">
<stop stop-color="#D8D8D8"/>
<stop offset="1" stop-color="white"/>
</linearGradient>
<linearGradient id="paint5_linear_22_614" x1="94.1542" y1="7.53149" x2="94.1542" y2="30.5064" gradientUnits="userSpaceOnUse">
<stop stop-color="#D8D8D8"/>
<stop offset="1" stop-color="white"/>
</linearGradient>
<linearGradient id="paint6_linear_22_614" x1="94.1542" y1="7.53149" x2="94.1542" y2="30.5064" gradientUnits="userSpaceOnUse">
<stop stop-color="#D8D8D8"/>
<stop offset="1" stop-color="white"/>
</linearGradient>
<linearGradient id="paint7_linear_22_614" x1="94.1542" y1="7.53149" x2="94.1542" y2="30.5064" gradientUnits="userSpaceOnUse">
<stop stop-color="#D8D8D8"/>
<stop offset="1" stop-color="white"/>
</linearGradient>
<linearGradient id="paint8_linear_22_614" x1="94.1542" y1="7.53149" x2="94.1542" y2="30.5064" gradientUnits="userSpaceOnUse">
<stop stop-color="#D8D8D8"/>
<stop offset="1" stop-color="white"/>
</linearGradient>
<linearGradient id="paint9_linear_22_614" x1="94.1542" y1="7.53149" x2="94.1542" y2="30.5064" gradientUnits="userSpaceOnUse">
<stop stop-color="#D8D8D8"/>
<stop offset="1" stop-color="white"/>
</linearGradient>
<clipPath id="clip0_22_614">
<rect width="42.9688" height="33.8115" fill="white"/>
</clipPath>
</defs>
</svg>
