<svg width="500" height="500" viewBox="0 0 500 500" fill="none" xmlns="http://www.w3.org/2000/svg">
<path fill-rule="evenodd" clip-rule="evenodd" d="M216.299 220.067C217.827 220.067 219.066 218.829 219.066 217.301C219.066 215.773 217.827 214.534 216.299 214.534C214.771 214.534 213.533 215.773 213.533 217.301C213.533 218.829 214.771 220.067 216.299 220.067ZM232.899 220.067C234.427 220.067 235.666 218.829 235.666 217.301C235.666 215.773 234.427 214.534 232.899 214.534C231.371 214.534 230.133 215.773 230.133 217.301C230.133 218.829 231.371 220.067 232.899 220.067ZM252.266 217.301C252.266 218.829 251.027 220.067 249.499 220.067C247.971 220.067 246.733 218.829 246.733 217.301C246.733 215.773 247.971 214.534 249.499 214.534C251.027 214.534 252.266 215.773 252.266 217.301ZM266.099 220.067C267.627 220.067 268.866 218.829 268.866 217.301C268.866 215.773 267.627 214.534 266.099 214.534C264.571 214.534 263.333 215.773 263.333 217.301C263.333 218.829 264.571 220.067 266.099 220.067ZM285.466 217.301C285.466 218.829 284.227 220.067 282.699 220.067C281.171 220.067 279.933 218.829 279.933 217.301C279.933 215.773 281.171 214.534 282.699 214.534C284.227 214.534 285.466 215.773 285.466 217.301ZM216.299 286.467C217.827 286.467 219.066 285.229 219.066 283.701C219.066 282.173 217.827 280.934 216.299 280.934C214.771 280.934 213.533 282.173 213.533 283.701C213.533 285.229 214.771 286.467 216.299 286.467ZM219.066 267.101C219.066 268.629 217.827 269.867 216.299 269.867C214.771 269.867 213.533 268.629 213.533 267.101C213.533 265.573 214.771 264.334 216.299 264.334C217.827 264.334 219.066 265.573 219.066 267.101ZM216.299 253.267C217.827 253.267 219.066 252.029 219.066 250.501C219.066 248.973 217.827 247.734 216.299 247.734C214.771 247.734 213.533 248.973 213.533 250.501C213.533 252.029 214.771 253.267 216.299 253.267ZM219.066 233.901C219.066 235.429 217.827 236.667 216.299 236.667C214.771 236.667 213.533 235.429 213.533 233.901C213.533 232.373 214.771 231.134 216.299 231.134C217.827 231.134 219.066 232.373 219.066 233.901ZM282.699 269.867C284.227 269.867 285.466 268.629 285.466 267.101C285.466 265.573 284.227 264.334 282.699 264.334C281.171 264.334 279.933 265.573 279.933 267.101C279.933 268.629 281.171 269.867 282.699 269.867ZM285.466 250.501C285.466 252.029 284.227 253.267 282.699 253.267C281.171 253.267 279.933 252.029 279.933 250.501C279.933 248.973 281.171 247.734 282.699 247.734C284.227 247.734 285.466 248.973 285.466 250.501ZM282.699 236.667C284.227 236.667 285.466 235.429 285.466 233.901C285.466 232.373 284.227 231.134 282.699 231.134C281.171 231.134 279.933 232.373 279.933 233.901C279.933 235.429 281.171 236.667 282.699 236.667ZM235.666 283.701C235.666 285.229 234.427 286.467 232.899 286.467C231.371 286.467 230.133 285.229 230.133 283.701C230.133 282.173 231.371 280.934 232.899 280.934C234.427 280.934 235.666 282.173 235.666 283.701ZM249.499 286.467C251.027 286.467 252.266 285.229 252.266 283.701C252.266 282.173 251.027 280.934 249.499 280.934C247.971 280.934 246.733 282.173 246.733 283.701C246.733 285.229 247.971 286.467 249.499 286.467ZM268.866 283.701C268.866 285.229 267.627 286.467 266.099 286.467C264.571 286.467 263.333 285.229 263.333 283.701C263.333 282.173 264.571 280.934 266.099 280.934C267.627 280.934 268.866 282.173 268.866 283.701ZM282.699 286.467C284.227 286.467 285.466 285.229 285.466 283.701C285.466 282.173 284.227 280.934 282.699 280.934C281.171 280.934 279.933 282.173 279.933 283.701C279.933 285.229 281.171 286.467 282.699 286.467ZM231.133 236.667C231.133 234.164 233.162 232.134 235.666 232.134H263.333C265.836 232.134 267.866 234.164 267.866 236.667V264.334C267.866 266.838 265.836 268.867 263.333 268.867H235.666C233.162 268.867 231.133 266.838 231.133 264.334V236.667ZM230.133 236.667C230.133 233.611 232.61 231.134 235.666 231.134H263.333C266.389 231.134 268.866 233.611 268.866 236.667V264.334C268.866 267.39 266.389 269.867 263.333 269.867H235.666C232.61 269.867 230.133 267.39 230.133 264.334V236.667Z" fill="#5D40F1"/>
</svg>
